<?xml version="1.0" standalone="no"?>
<!DOCTYPE svg PUBLIC "-//W3C//DTD SVG 20010904//EN"
 "http://www.w3.org/TR/2001/REC-SVG-20010904/DTD/svg10.dtd">
<svg version="1.0" xmlns="http://www.w3.org/2000/svg"
 width="700.000000pt" height="700.000000pt" viewBox="0 0 700.000000 700.000000"
 preserveAspectRatio="xMidYMid meet">
<metadata>
Created by potrace 1.11, written by Peter Selinger 2001-2013
</metadata>
<g transform="translate(0.000000,700.000000) scale(0.100000,-0.100000)"
fill="#000000" stroke="none">
<path d="M3413 5617 c-6 -7 -69 -69 -140 -138 -113 -111 -231 -236 -289 -308
-10 -13 -24 -28 -29 -35 -87 -98 -247 -338 -313 -471 -109 -220 -151 -388
-147 -589 1 -72 5 -147 9 -166 10 -60 17 -94 21 -110 2 -8 4 -22 5 -30 0 -8
15 28 34 80 85 245 175 370 533 730 316 319 397 428 439 592 33 127 24 228
-31 343 -38 81 -74 120 -92 102z"/>
<path d="M3788 5334 c-3 -5 -4 -17 -3 -27 12 -69 -40 -254 -100 -355 -51 -88
-79 -119 -334 -382 -271 -278 -402 -429 -502 -579 -142 -211 -214 -393 -225
-571 l-5 -75 68 -71 c179 -186 392 -281 653 -289 616 -20 1030 457 1024 1180
-1 161 -39 324 -111 484 -24 54 -25 55 -36 31 -135 -321 -312 -548 -617 -794
-108 -87 -319 -236 -335 -236 -4 0 -20 -9 -37 -21 -16 -12 -32 -19 -34 -16
-10 10 -5 125 7 169 31 118 101 211 337 448 195 196 262 272 310 351 28 47 71
161 80 213 13 74 6 238 -13 301 -30 105 -114 262 -127 239z"/>
<path d="M2055 4917 c-107 -51 -173 -156 -190 -302 -2 -22 -7 -71 -9 -110 -10
-130 -61 -232 -139 -275 -52 -29 -55 -33 -53 -78 2 -30 8 -40 32 -51 87 -41
145 -140 158 -271 3 -30 8 -82 11 -115 9 -112 45 -195 109 -258 44 -43 102
-73 151 -79 29 -3 29 -2 30 46 0 47 -1 49 -29 53 -62 9 -116 52 -150 120 -28
56 -34 92 -41 228 -8 161 -37 253 -98 306 l-29 26 34 34 c61 61 84 134 93 295
3 55 8 117 11 139 15 106 87 197 168 213 41 8 41 8 41 52 0 41 -3 45 -25 48
-14 1 -47 -8 -75 -21z"/>
<path d="M4650 4891 c0 -28 3 -51 8 -52 105 -11 175 -80 201 -199 5 -25 12
-97 15 -160 4 -63 12 -139 20 -168 18 -65 59 -137 91 -158 l24 -16 -30 -25
c-36 -31 -75 -104 -89 -169 -6 -26 -13 -99 -16 -163 -6 -131 -15 -176 -50
-242 -25 -45 -91 -98 -126 -100 -10 -1 -24 -2 -30 -3 -8 -1 -14 -21 -16 -54
l-3 -53 37 5 c55 9 132 55 169 101 68 84 89 151 99 320 9 133 37 208 103 272
30 29 62 53 72 53 16 0 20 9 23 50 l3 51 -42 20 c-92 45 -149 156 -158 312
-11 164 -40 256 -105 331 -40 45 -107 84 -159 92 l-41 7 0 -52z"/>
<path d="M1224 2148 l0 -218 27 0 c15 0 29 6 31 13 6 19 2 406 -4 413 -4 3
-17 7 -30 8 l-23 3 -1 -219z"/>
<path d="M1350 2338 c0 -28 0 -28 70 -28 l70 0 0 -190 0 -190 30 0 30 0 0 190
0 190 70 0 c68 0 70 1 70 25 0 14 -6 25 -12 26 -7 1 -84 2 -170 3 l-158 1 0
-27z"/>
<path d="M1730 2293 c0 -71 1 -74 23 -71 20 3 22 8 22 70 0 61 -2 67 -22 71
-22 4 -23 2 -23 -70z"/>
<path d="M1950 2361 c-66 -15 -106 -81 -86 -141 13 -40 54 -70 127 -94 75 -25
99 -43 99 -77 0 -38 -38 -62 -94 -61 -42 0 -118 31 -131 53 -4 6 -13 -1 -22
-17 -13 -26 -12 -30 4 -42 87 -67 215 -70 279 -5 30 29 33 38 30 79 -5 60 -32
87 -121 118 -104 36 -133 68 -101 112 19 26 107 28 157 3 l36 -18 12 25 c15
34 16 32 -26 50 -40 17 -121 24 -163 15z"/>
<path d="M2565 2363 c-17 -3 -40 -46 -108 -201 -112 -256 -105 -232 -69 -232
26 0 32 6 51 53 l22 53 114 0 114 0 21 -43 c11 -23 20 -47 20 -53 0 -5 16 -10
35 -10 l34 0 -29 68 c-92 215 -158 355 -171 361 -8 4 -23 6 -34 4z m62 -182
c18 -41 33 -78 33 -83 0 -4 -38 -8 -85 -8 -47 0 -85 2 -85 4 0 2 14 36 30 75
17 40 35 84 41 99 10 26 11 26 22 7 6 -11 26 -53 44 -94z"/>
<path d="M2884 2362 c-22 -3 -22 -6 -22 -218 l1 -214 123 0 124 0 0 28 0 29
-94 -1 -94 -1 0 183 c0 101 -4 187 -9 191 -4 4 -18 5 -29 3z"/>
<path d="M3205 2361 c-20 -6 -20 -14 -20 -218 l0 -213 122 0 123 0 0 28 0 28
-92 -1 -93 0 0 182 c0 109 -4 186 -10 191 -5 5 -19 6 -30 3z"/>
<path d="M3616 2361 c-2 -3 28 -100 68 -216 71 -209 71 -210 102 -213 l30 -3
48 153 c27 84 53 164 58 178 11 27 8 33 88 -228 l31 -103 32 3 32 3 71 210
c61 180 69 211 55 216 -37 14 -46 -2 -101 -182 l-54 -181 -23 69 c-12 37 -36
115 -54 173 -18 58 -36 110 -41 116 -4 6 -19 9 -33 7 -21 -5 -42 -39 -50 -83
-1 -3 -4 -14 -7 -25 -4 -11 -23 -74 -44 -140 l-37 -119 -55 179 c-30 99 -56
181 -57 183 -6 7 -56 9 -59 3z"/>
<path d="M4413 2291 c-50 -109 -139 -312 -147 -338 -6 -20 -4 -23 21 -23 24 0
32 8 53 53 l25 52 112 1 112 1 22 -54 c19 -47 25 -53 50 -53 37 0 37 11 -2 91
-17 35 -39 84 -50 109 -26 64 -83 192 -95 213 -6 10 -23 20 -38 21 -25 3 -30
-3 -63 -73z m92 -61 c10 -25 27 -64 37 -87 10 -23 18 -44 18 -47 0 -4 -38 -6
-85 -6 -47 0 -85 2 -85 5 0 3 12 34 26 68 15 34 33 77 41 96 16 38 22 35 48
-29z"/>
<path d="M4709 2358 c-7 -41 -5 -43 66 -48 l69 -5 1 -185 0 -185 28 -3 c32 -4
29 -25 29 211 l0 167 69 0 c72 0 79 4 70 35 -6 19 -15 20 -169 20 -89 0 -163
-3 -163 -7z"/>
<path d="M5120 2362 c-6 -2 -10 -84 -10 -218 l0 -214 154 0 153 0 -1 28 -1 27
-123 0 -122 0 0 68 c0 77 -16 69 136 69 77 1 80 2 80 24 0 28 5 27 -116 29
l-95 1 -3 67 -3 67 121 0 121 0 -3 27 -3 27 -138 0 c-75 1 -142 0 -147 -2z"/>
<path d="M5510 2148 l0 -218 30 0 c29 0 29 0 32 67 l3 68 66 1 66 1 42 -69
c37 -59 46 -68 72 -68 34 0 36 8 9 43 -11 14 -20 30 -20 36 0 6 -4 11 -8 11
-4 0 -16 13 -25 30 -18 30 -18 30 6 41 60 27 86 142 47 206 -29 49 -77 64
-207 66 l-113 2 0 -217z m221 152 c55 -15 79 -80 49 -135 -17 -31 -49 -41
-137 -44 l-73 -2 0 95 0 96 63 0 c34 0 78 -5 98 -10z"/>
<path d="M1103 1660 c-23 -9 -40 -51 -29 -69 4 -6 26 -19 50 -30 49 -21 63
-38 48 -53 -14 -14 -70 -12 -88 3 -8 6 -18 9 -22 5 -12 -13 38 -46 68 -46 41
0 60 10 70 36 14 36 3 52 -52 76 -65 28 -63 54 5 51 35 -1 47 2 47 13 0 8 -8
14 -17 14 -10 0 -27 2 -38 5 -11 2 -30 0 -42 -5z"/>
<path d="M1343 1654 c-56 -28 -68 -114 -21 -158 11 -10 39 -21 63 -23 111 -13
152 140 50 183 -43 18 -52 17 -92 -2z m112 -44 c17 -27 14 -60 -7 -85 -33 -37
-72 -41 -103 -11 -41 41 -32 100 19 121 25 11 35 11 58 -1 15 -8 30 -18 33
-24z"/>
<path d="M1590 1569 c0 -78 3 -99 14 -99 9 0 14 12 14 34 0 48 6 54 52 49 30
-3 40 0 40 11 0 10 -11 14 -42 13 -37 -1 -42 1 -49 26 -9 34 3 42 56 38 29 -2
42 2 42 11 0 10 -18 14 -64 15 l-63 1 0 -99z"/>
<path d="M1785 1661 c-12 -12 -2 -20 27 -23 l32 -3 -1 -82 c-2 -67 1 -83 12
-83 12 0 15 17 15 85 l0 85 30 0 c18 0 30 5 30 13 0 9 -20 13 -70 13 -39 0
-73 -2 -75 -5z"/>
<path d="M2002 1663 c-6 -3 -9 -10 -5 -16 4 -7 19 -48 33 -92 39 -118 55 -114
90 24 13 48 20 46 39 -14 40 -125 50 -125 91 1 17 53 29 99 26 101 -11 12 -24
-11 -46 -81 -13 -42 -26 -73 -29 -70 -3 3 -15 38 -26 77 -13 46 -26 72 -35 72
-9 0 -24 -30 -40 -83 l-27 -83 -23 78 c-24 85 -29 93 -48 86z"/>
<path d="M2404 1613 c-62 -138 -64 -143 -50 -143 7 0 18 11 25 24 11 20 20 24
63 23 42 0 52 -4 61 -24 10 -23 43 -34 34 -10 -18 45 -72 164 -80 175 -17 22
-27 13 -53 -45z m69 -65 c-5 -9 -57 -11 -65 -2 -3 3 3 24 15 47 l20 42 17 -40
c10 -22 15 -43 13 -47z"/>
<path d="M2629 1638 c0 -15 0 -48 0 -73 0 -89 1 -97 14 -92 6 2 11 16 11 30
-1 24 2 27 32 27 26 0 37 -6 51 -30 9 -16 23 -30 30 -30 18 0 16 8 -7 37 -20
26 -20 26 0 43 26 23 26 71 -1 95 -14 13 -37 19 -75 20 -53 1 -54 1 -55 -27z
m109 -6 c7 -5 14 -18 17 -30 5 -28 -23 -48 -66 -47 -32 1 -33 2 -34 43 -1 42
-1 42 35 42 19 0 41 -4 48 -8z"/>
<path d="M2894 1661 c-5 -3 -9 -46 -9 -96 l1 -90 73 -3 c56 -2 72 0 69 10 -3
9 -23 13 -60 12 l-55 0 0 32 c0 30 2 32 36 32 54 0 61 1 61 12 0 6 -22 10 -48
10 -47 0 -49 1 -50 30 -1 32 1 33 66 30 30 -1 42 2 42 12 0 10 -16 14 -59 15
-32 0 -62 -2 -67 -6z"/>
<path d="M3259 1666 c-1 -1 -2 -45 -4 -98 l-2 -98 57 0 c89 0 138 53 118 127
-12 44 -49 67 -114 68 -30 1 -55 1 -55 1z m120 -40 c23 -14 33 -58 21 -87 -12
-28 -45 -44 -90 -44 -24 0 -25 2 -26 70 -1 39 0 73 2 76 4 8 75 -4 93 -15z"/>
<path d="M3530 1569 l0 -99 71 0 c52 0 70 3 67 12 -3 8 -22 13 -49 13 -52 0
-68 9 -64 33 2 9 4 20 4 23 1 3 21 6 46 5 28 -1 47 4 50 11 3 9 -9 13 -44 13
-50 0 -62 9 -53 42 3 13 17 18 56 20 72 4 59 22 -19 24 l-65 2 0 -99z"/>
<path d="M3761 1618 c12 -29 29 -73 39 -98 19 -48 46 -64 56 -33 3 10 10 27
14 38 36 82 58 141 54 144 -10 11 -36 -30 -62 -96 l-27 -72 -33 85 c-20 49
-39 84 -48 84 -11 0 -9 -11 7 -52z"/>
<path d="M4019 1666 c-1 0 -3 -45 -4 -98 l-2 -98 68 0 c37 0 70 4 73 9 8 12
-11 17 -66 16 -47 0 -48 0 -48 31 0 29 2 31 38 31 56 1 62 2 62 13 0 6 -23 10
-51 10 l-50 0 3 33 3 32 53 -3 c39 -2 52 1 52 11 0 10 -17 14 -65 14 -36 0
-66 0 -66 -1z"/>
<path d="M4256 1654 c-3 -9 -6 -54 -6 -100 l0 -84 60 0 c33 0 60 4 60 10 0 10
-11 12 -62 13 l-28 0 0 89 c0 82 -9 110 -24 72z"/>
<path d="M4510 1662 c-46 -20 -62 -42 -67 -86 -5 -42 -3 -48 27 -76 24 -22 42
-30 69 -30 94 0 139 111 70 171 -12 10 -25 19 -28 20 -3 0 -17 2 -31 4 -14 2
-32 1 -40 -3z m79 -39 c72 -59 -21 -169 -94 -112 -51 41 -21 129 44 129 16 0
38 -8 50 -17z"/>
<path d="M4740 1570 c0 -84 3 -100 16 -100 9 0 14 8 13 18 -3 35 2 42 31 42
66 0 100 38 86 94 -7 28 -26 36 -97 42 l-49 4 0 -100z m106 62 c38 -26 16 -70
-38 -76 -39 -5 -40 -4 -40 44 0 11 0 25 1 30 1 12 61 13 77 2z"/>
<path d="M4986 1653 c-3 -10 -4 -55 -4 -100 1 -62 5 -83 15 -83 10 0 13 20 13
77 l0 77 33 -64 c17 -35 37 -65 43 -67 5 -2 23 24 39 58 16 33 32 62 35 64 3
2 5 -30 4 -71 0 -55 3 -74 13 -74 10 0 13 24 13 99 0 88 -2 99 -17 97 -10 -2
-30 -29 -48 -64 -16 -34 -34 -60 -38 -59 -5 1 -23 29 -40 62 -34 63 -52 77
-61 48z"/>
<path d="M5306 1662 c-3 -3 -6 -47 -6 -99 l0 -93 71 0 c52 0 70 3 66 13 -2 7
-22 12 -55 11 -52 0 -52 0 -52 32 0 30 1 31 40 30 23 -1 45 4 52 11 8 10 0 13
-41 13 -51 0 -51 0 -51 33 l0 32 56 -3 c43 -3 55 -1 52 9 -4 13 -121 23 -132
11z"/>
<path d="M5540 1570 c0 -77 3 -100 13 -100 10 0 14 18 14 65 0 36 2 68 5 70 2
2 27 -27 56 -65 29 -39 58 -70 66 -70 10 0 13 23 13 99 0 119 -19 135 -27 24
l-5 -72 -45 61 c-51 70 -68 88 -81 88 -5 0 -9 -45 -9 -100z"/>
<path d="M5794 1658 c-5 -8 7 -15 41 -20 18 -3 20 -11 20 -80 1 -75 9 -104 23
-81 4 6 7 45 6 87 l0 76 31 0 c19 0 32 5 32 13 0 15 -144 20 -153 5z"/>
</g>
</svg>
