<svg xmlns="http://www.w3.org/2000/svg" width="500" height="500" viewBox="0 0 500 500"><g transform="translate(77,319)translate(173,29.5)rotate(0)translate(-173,-29.5)" opacity="1"><path transform="translate(6,0)rotate(0)" d="M4.40 43L4.40 12.20L8.62 12.20L8.62 43L4.40 43ZM13.46 16.07L13.46 12.20L37.53 12.20L37.53 16.07L27.59 16.07L27.59 43L23.36 43L23.36 16.07L13.46 16.07ZM40.61 22.45L40.61 12.20L43.82 12.20L43.82 22.45L40.61 22.45ZM68.86 18.62L68.86 18.62Q66.70 17.26 64.39 16.58L64.39 16.58L64.39 16.58Q62.08 15.90 60.15 15.90L60.15 15.90L60.15 15.90Q57.46 15.90 55.86 16.93L55.86 16.93L55.86 16.93Q54.25 17.96 54.25 19.77L54.25 19.77L54.25 19.77Q54.25 21.40 55.22 22.43L55.22 22.43L55.22 22.43Q56.19 23.46 57.60 24.06L57.60 24.06L57.60 24.06Q59.00 24.65 61.51 25.44L61.51 25.44L61.51 25.44Q64.64 26.41 66.57 27.29L66.57 27.29L66.57 27.29Q68.51 28.17 69.87 29.91L69.87 29.91L69.87 29.91Q71.24 31.65 71.24 34.51L71.24 34.51L71.24 34.51Q71.24 37.15 69.81 39.13L69.81 39.13L69.81 39.13Q68.38 41.11 65.80 42.19L65.80 42.19L65.80 42.19Q63.23 43.26 59.88 43.26L59.88 43.26L59.88 43.26Q56.50 43.26 53.28 41.94L53.28 41.94L53.28 41.94Q50.07 40.62 47.74 38.42L47.74 38.42L49.63 34.77L49.63 34.77Q51.83 36.93 54.58 38.09L54.58 38.09L54.58 38.09Q57.33 39.26 59.93 39.26L59.93 39.26L59.93 39.26Q63.01 39.26 64.79 38.05L64.79 38.05L64.79 38.05Q66.57 36.84 66.57 34.77L66.57 34.77L66.57 34.77Q66.57 33.14 65.60 32.09L65.60 32.09L65.60 32.09Q64.64 31.03 63.16 30.42L63.16 30.42L63.16 30.42Q61.69 29.80 59.18 29.05L59.18 29.05L59.18 29.05Q56.10 28.13 54.16 27.25L54.16 27.25L54.16 27.25Q52.23 26.37 50.89 24.65L50.89 24.65L50.89 24.65Q49.54 22.94 49.54 20.12L49.54 20.12L49.54 20.12Q49.54 17.66 50.91 15.76L50.91 15.76L50.91 15.76Q52.27 13.87 54.74 12.86L54.74 12.86L54.74 12.86Q57.20 11.85 60.46 11.85L60.46 11.85L60.46 11.85Q63.23 11.85 65.89 12.66L65.89 12.66L65.89 12.66Q68.55 13.48 70.62 14.84L70.62 14.84L68.86 18.62ZM116.95 43L112.38 43L109.12 35.52L92.88 35.52L89.67 43L85.23 43L98.91 12.20L103.31 12.20L116.95 43ZM100.98 16.73L94.56 31.69L107.49 31.69L100.98 16.73ZM121.44 43L121.44 12.20L125.66 12.20L125.66 39.17L139.13 39.17L139.13 43L121.44 43ZM144.50 43L144.50 12.20L148.72 12.20L148.72 39.17L162.18 39.17L162.18 43L144.50 43ZM208.03 38.47L216.13 12.20L220.53 12.20L210.10 43L205.70 43L197.74 17.57L189.64 43L185.28 43L174.90 12.20L179.43 12.20L187.57 38.47L195.67 12.20L199.89 12.20L208.03 38.47ZM252.56 43L247.98 43L244.73 35.52L228.49 35.52L225.28 43L220.84 43L234.52 12.20L238.92 12.20L252.56 43ZM236.59 16.73L230.16 31.69L243.10 31.69L236.59 16.73ZM253.09 16.07L253.09 12.20L277.16 12.20L277.16 16.07L267.21 16.07L267.21 43L262.99 43L262.99 16.07L253.09 16.07ZM282.00 43L282.00 12.20L303.38 12.20L303.38 16.03L286.22 16.03L286.22 25.53L301.58 25.53L301.58 29.36L286.22 29.36L286.22 39.17L303.91 39.17L303.91 43L282.00 43ZM335.46 43L330.62 43L324.50 33.32L324.50 33.32Q323.44 33.41 322.78 33.41L322.78 33.41L314.95 33.41L314.95 43L310.73 43L310.73 12.20L322.78 12.20L322.78 12.20Q328.64 12.20 331.83 14.91L331.83 14.91L331.83 14.91Q335.02 17.61 335.02 22.58L335.02 22.58L335.02 22.58Q335.02 26.32 333.28 28.88L333.28 28.88L333.28 28.88Q331.54 31.43 328.28 32.57L328.28 32.57L335.46 43ZM314.95 29.58L322.78 29.58L322.78 29.58Q326.74 29.58 328.86 27.84L328.86 27.84L328.86 27.84Q330.97 26.10 330.97 22.72L330.97 22.72L330.97 22.72Q330.97 19.42 328.86 17.72L328.86 17.72L328.86 17.72Q326.74 16.03 322.78 16.03L322.78 16.03L314.95 16.03L314.95 29.58Z" fill="#231815"/></g><g transform="translate(69,376)translate(181,13.5)rotate(0)translate(-181,-13.5)" opacity="1"><path transform="translate(6,0)rotate(0)" d="M10.18 7.92L10.18 7.92Q9.20 7.30 8.15 6.99L8.15 6.99L8.15 6.99Q7.10 6.68 6.22 6.68L6.22 6.68L6.22 6.68Q5 6.68 4.27 7.15L4.27 7.15L4.27 7.15Q3.54 7.62 3.54 8.44L3.54 8.44L3.54 8.44Q3.54 9.18 3.98 9.65L3.98 9.65L3.98 9.65Q4.42 10.12 5.06 10.39L5.06 10.39L5.06 10.39Q5.70 10.66 6.84 11.02L6.84 11.02L6.84 11.02Q8.26 11.46 9.14 11.86L9.14 11.86L9.14 11.86Q10.02 12.26 10.64 13.05L10.64 13.05L10.64 13.05Q11.26 13.84 11.26 15.14L11.26 15.14L11.26 15.14Q11.26 16.34 10.61 17.24L10.61 17.24L10.61 17.24Q9.96 18.14 8.79 18.63L8.79 18.63L8.79 18.63Q7.62 19.12 6.10 19.12L6.10 19.12L6.10 19.12Q4.56 19.12 3.10 18.52L3.10 18.52L3.10 18.52Q1.64 17.92 0.58 16.92L0.58 16.92L1.44 15.26L1.44 15.26Q2.44 16.24 3.69 16.77L3.69 16.77L3.69 16.77Q4.94 17.30 6.12 17.30L6.12 17.30L6.12 17.30Q7.52 17.30 8.33 16.75L8.33 16.75L8.33 16.75Q9.14 16.20 9.14 15.26L9.14 15.26L9.14 15.26Q9.14 14.52 8.70 14.04L8.70 14.04L8.70 14.04Q8.26 13.56 7.59 13.28L7.59 13.28L7.59 13.28Q6.92 13 5.78 12.66L5.78 12.66L5.78 12.66Q4.38 12.24 3.50 11.84L3.50 11.84L3.50 11.84Q2.62 11.44 2.01 10.66L2.01 10.66L2.01 10.66Q1.40 9.88 1.40 8.60L1.40 8.60L1.40 8.60Q1.40 7.48 2.02 6.62L2.02 6.62L2.02 6.62Q2.64 5.76 3.76 5.30L3.76 5.30L3.76 5.30Q4.88 4.84 6.36 4.84L6.36 4.84L6.36 4.84Q7.62 4.84 8.83 5.21L8.83 5.21L8.83 5.21Q10.04 5.58 10.98 6.20L10.98 6.20L10.18 7.92ZM24.44 4.88L24.44 4.88Q26.46 4.88 28.15 5.82L28.15 5.82L28.15 5.82Q29.84 6.76 30.82 8.39L30.82 8.39L30.82 8.39Q31.80 10.02 31.80 11.98L31.80 11.98L31.80 11.98Q31.80 13.94 30.82 15.59L30.82 15.59L30.82 15.59Q29.84 17.24 28.15 18.19L28.15 18.19L28.15 18.19Q26.46 19.14 24.44 19.14L24.44 19.14L24.44 19.14Q22.42 19.14 20.73 18.19L20.73 18.19L20.73 18.19Q19.04 17.24 18.06 15.59L18.06 15.59L18.06 15.59Q17.08 13.94 17.08 11.98L17.08 11.98L17.08 11.98Q17.08 10.02 18.06 8.39L18.06 8.39L18.06 8.39Q19.04 6.76 20.72 5.82L20.72 5.82L20.72 5.82Q22.40 4.88 24.44 4.88L24.44 4.88ZM24.46 6.60L24.46 6.60Q23 6.60 21.75 7.32L21.75 7.32L21.75 7.32Q20.50 8.04 19.76 9.27L19.76 9.27L19.76 9.27Q19.02 10.50 19.02 11.98L19.02 11.98L19.02 11.98Q19.02 13.46 19.76 14.70L19.76 14.70L19.76 14.70Q20.50 15.94 21.75 16.67L21.75 16.67L21.75 16.67Q23 17.40 24.46 17.40L24.46 17.40L24.46 17.40Q25.92 17.40 27.15 16.67L27.15 16.67L27.15 16.67Q28.38 15.94 29.11 14.70L29.11 14.70L29.11 14.70Q29.84 13.46 29.84 11.98L29.84 11.98L29.84 11.98Q29.84 10.50 29.11 9.27L29.11 9.27L29.11 9.27Q28.38 8.04 27.15 7.32L27.15 7.32L27.15 7.32Q25.92 6.60 24.46 6.60L24.46 6.60ZM38.56 19L38.56 5L47.68 5L47.66 6.74L40.48 6.74L40.48 11.34L46.94 11.34L46.94 13.08L40.48 13.08L40.48 19L38.56 19ZM52.12 6.76L52.12 5L63.06 5L63.06 6.76L58.54 6.76L58.54 19L56.62 19L56.62 6.76L52.12 6.76ZM82.42 16.94L86.10 5L88.10 5L83.36 19L81.36 19L77.74 7.44L74.06 19L72.08 19L67.36 5L69.42 5L73.12 16.94L76.80 5L78.72 5L82.42 16.94ZM106.66 19L104.58 19L103.10 15.60L95.72 15.60L94.26 19L92.24 19L98.46 5L100.46 5L106.66 19ZM99.40 7.06L96.48 13.86L102.36 13.86L99.40 7.06ZM123.94 19L121.74 19L118.96 14.60L118.96 14.60Q118.48 14.64 118.18 14.64L118.18 14.64L114.62 14.64L114.62 19L112.70 19L112.70 5L118.18 5L118.18 5Q120.84 5 122.29 6.23L122.29 6.23L122.29 6.23Q123.74 7.46 123.74 9.72L123.74 9.72L123.74 9.72Q123.74 11.42 122.95 12.58L122.95 12.58L122.95 12.58Q122.16 13.74 120.68 14.26L120.68 14.26L123.94 19ZM114.62 12.90L118.18 12.90L118.18 12.90Q119.98 12.90 120.94 12.11L120.94 12.11L120.94 12.11Q121.90 11.32 121.90 9.78L121.90 9.78L121.90 9.78Q121.90 8.28 120.94 7.51L120.94 7.51L120.94 7.51Q119.98 6.74 118.18 6.74L118.18 6.74L114.62 6.74L114.62 12.90ZM131.16 19L131.16 5L140.88 5L140.88 6.74L133.08 6.74L133.08 11.06L140.06 11.06L140.06 12.80L133.08 12.80L133.08 17.26L141.12 17.26L141.12 19L131.16 19ZM163.16 5L163.16 5Q165.20 5 166.85 5.91L166.85 5.91L166.85 5.91Q168.50 6.82 169.44 8.42L169.44 8.42L169.44 8.42Q170.38 10.02 170.38 12L170.38 12L170.38 12Q170.38 13.98 169.43 15.58L169.43 15.58L169.43 15.58Q168.48 17.18 166.82 18.09L166.82 18.09L166.82 18.09Q165.16 19 163.10 19L163.10 19L157.46 19L157.46 5L163.16 5ZM163.20 17.26L163.20 17.26Q164.66 17.26 165.85 16.58L165.85 16.58L165.85 16.58Q167.04 15.90 167.73 14.70L167.73 14.70L167.73 14.70Q168.42 13.50 168.42 12.02L168.42 12.02L168.42 12.02Q168.42 10.52 167.72 9.32L167.72 9.32L167.72 9.32Q167.02 8.12 165.81 7.43L165.81 7.43L165.81 7.43Q164.60 6.74 163.12 6.74L163.12 6.74L159.38 6.74L159.38 17.26L163.20 17.26ZM177.12 19L177.12 5L186.84 5L186.84 6.74L179.04 6.74L179.04 11.06L186.02 11.06L186.02 12.80L179.04 12.80L179.04 17.26L187.08 17.26L187.08 19L177.12 19ZM197.92 19L192.28 5L194.34 5L198.96 16.86L203.58 5L205.60 5L199.92 19L197.92 19ZM211.70 19L211.70 5L221.42 5L221.42 6.74L213.62 6.74L213.62 11.06L220.60 11.06L220.60 12.80L213.62 12.80L213.62 17.26L221.66 17.26L221.66 19L211.70 19ZM228.76 19L228.76 5L230.68 5L230.68 17.26L236.80 17.26L236.80 19L228.76 19ZM249.36 4.88L249.36 4.88Q251.38 4.88 253.07 5.82L253.07 5.82L253.07 5.82Q254.76 6.76 255.74 8.39L255.74 8.39L255.74 8.39Q256.72 10.02 256.72 11.98L256.72 11.98L256.72 11.98Q256.72 13.94 255.74 15.59L255.74 15.59L255.74 15.59Q254.76 17.24 253.07 18.19L253.07 18.19L253.07 18.19Q251.38 19.14 249.36 19.14L249.36 19.14L249.36 19.14Q247.34 19.14 245.65 18.19L245.65 18.19L245.65 18.19Q243.96 17.24 242.98 15.59L242.98 15.59L242.98 15.59Q242 13.94 242 11.98L242 11.98L242 11.98Q242 10.02 242.98 8.39L242.98 8.39L242.98 8.39Q243.96 6.76 245.64 5.82L245.64 5.82L245.64 5.82Q247.32 4.88 249.36 4.88L249.36 4.88ZM249.38 6.60L249.38 6.60Q247.92 6.60 246.67 7.32L246.67 7.32L246.67 7.32Q245.42 8.04 244.68 9.27L244.68 9.27L244.68 9.27Q243.94 10.50 243.94 11.98L243.94 11.98L243.94 11.98Q243.94 13.46 244.68 14.70L244.68 14.70L244.68 14.70Q245.42 15.94 246.67 16.67L246.67 16.67L246.67 16.67Q247.92 17.40 249.38 17.40L249.38 17.40L249.38 17.40Q250.84 17.40 252.07 16.67L252.07 16.67L252.07 16.67Q253.30 15.94 254.03 14.70L254.03 14.70L254.03 14.70Q254.76 13.46 254.76 11.98L254.76 11.98L254.76 11.98Q254.76 10.50 254.03 9.27L254.03 9.27L254.03 9.27Q253.30 8.04 252.07 7.32L252.07 7.32L252.07 7.32Q250.84 6.60 249.38 6.60L249.38 6.60ZM268.88 5L268.88 5Q271.50 5 272.93 6.24L272.93 6.24L272.93 6.24Q274.36 7.48 274.36 9.72L274.36 9.72L274.36 9.72Q274.36 12.06 272.92 13.35L272.92 13.35L272.92 13.35Q271.48 14.64 268.88 14.64L268.88 14.64L265.40 14.64L265.40 19L263.48 19L263.48 5L268.88 5ZM268.80 12.90L268.80 12.90Q270.60 12.90 271.56 12.11L271.56 12.11L271.56 12.11Q272.52 11.32 272.52 9.78L272.52 9.78L272.52 9.78Q272.52 8.28 271.56 7.51L271.56 7.51L271.56 7.51Q270.60 6.74 268.80 6.74L268.80 6.74L265.40 6.76L265.40 12.90L268.80 12.90ZM280.90 19L280.90 5L283.18 5L288.30 14.84L293.38 5L295.68 5L295.68 19L293.88 19L293.86 7.82L288.88 17.52L287.70 17.52L282.68 7.82L282.68 19L280.90 19ZM303.68 19L303.68 5L313.40 5L313.40 6.74L305.60 6.74L305.60 11.06L312.58 11.06L312.58 12.80L305.60 12.80L305.60 17.26L313.64 17.26L313.64 19L303.68 19ZM330.70 15.86L330.70 5L332.60 5L332.60 19L330.66 19L322.66 8.16L322.66 19L320.74 19L320.74 5L322.68 5L330.70 15.86ZM338.82 6.76L338.82 5L349.76 5L349.76 6.76L345.24 6.76L345.24 19L343.32 19L343.32 6.76L338.82 6.76Z" fill="#05b1f2"/></g><g transform="translate(187,118)translate(62.5,84.5)rotate(0)translate(-62.5,-84.5) scale(1.0662617715299576,1.0662617715299576)" opacity="1"><defs class="defs"><linearGradient id="linearGradient_2_c2" class="linearGradient2" gradientTransform="translate(0.5,0.5) rotate(20) translate(-0.5,-0.5)" x1="50%" y1="0%" x2="50%" y2="100%"><stop id="stop1" offset="2.3809523809524%" class="linearGradientColor1" stop-color="#08bef3"/><stop id="stop2" offset="100%" class="linearGradientColor2" stop-color="#1f65a2"/></linearGradient></defs><path fill="#05B1F2" d="M107.854,42.922c-16,46.298-69.598,73.812-69.598,73.812c-4.979-29.421,36.658-45.258,46.617-71.517&#10;&#9;C94.83,18.967,78.342,0,78.342,0c0.449,10.595-2.316,24.682-15.422,38.231C39.684,62.26,0,95.908,0,133.644&#10;&#9;c12.204,16.358,30.383,24.954,50.699,24.954c36.75,0,66.533-28.066,66.533-79.435C117.232,67.041,113.518,54.696,107.854,42.922z" class="color c1"/><path fill="url(#linearGradient_2_c2)" d="M78.113-0.372c0.076,0.176,0.154,0.351,0.234,0.525c0.416,10.577-2.385,24.593-15.428,38.078&#10;&#9;c-1.119,1.156-2.283,2.345-3.477,3.542c-0.105,0.114-32.643,34.225-21.644,73.4c0.104,0.862,0.253,1.652,0.464,2.334&#10;&#9;c-0.083-0.492-0.151-0.98-0.209-1.464c0.067,0.229,0.13,0.459,0.201,0.689c-0.233-1.377-0.364-2.724-0.4-4.043&#10;&#9;c-0.059-26.76,38.063-42.453,47.584-67.555C94.848,20.343,80.004,1.967,78.113-0.372z" class="color c2"/></g><g transform="translate(178,98)translate(38,66.5)rotate(0)translate(-38,-66.5) scale(1.0095642933049946,1.0095642933049946)" opacity="1"><defs class="defs"/><path fill="#05B1F2" d="M66.529,48.207c19.689-29.198,0-48.207,0-48.207S0,55.217,0,106.586c0,9.438,1.012,18.075,2.882,25.911&#10;&#9;C13.344,91.532,49.771,73.053,66.529,48.207z" class="color c1"/></g><g transform="translate(119,147)translate(17.5,55.5)rotate(0)translate(-17.5,-55.5) scale(1.2411347517730495,1.2411347517730495)" opacity="1"><defs class="defs"/><path transform="translate(-35.89999999999999,-5)" d="M35.9,47.4c7.3,-1.7 11.1,-10.3 11.1,-18.8c-0.1,-18.7 11.2,-23.6 17.1,-23.6v5.7c-0.5,0 -12.6,-0.7 -12.6,18c0,8.6 -1.1,17.4 -7.6,21.4c6.5,4 7.6,12.7 7.6,21.4c0,18.7 12.1,18 12.6,18v5.7c-5.9,0 -17.1,-4.9 -17.1,-23.6c0,-8.5 -3.8,-17.1 -11.1,-18.8z" fill="#5F5F5F" class="fill c1"/></g><g transform="translate(332,147)translate(18,55.5)rotate(0)translate(-18,-55.5) scale(1.2765957446808514,1.2765957446808514)" opacity="1"><defs class="defs"/><path transform="translate(-35.9,-5)" d="M64.1,47.4c-7.3,-1.7 -11.1,-10.3 -11.1,-18.8c0.1,-18.7 -11.2,-23.6 -17.1,-23.6v5.7c0.5,0 12.6,-0.7 12.6,18c0,8.6 1.1,17.4 7.6,21.4c-6.5,4 -7.6,12.7 -7.6,21.4c0,18.7 -12.1,18 -12.6,18v5.7c5.9,0 17.1,-4.9 17.1,-23.6c0,-8.5 3.8,-17.1 11.1,-18.8z" fill="#5F5F5F" class="fill c1"/></g></svg>